<svg width="17" height="20" viewBox="0 0 17 20" fill="none" xmlns="http://www.w3.org/2000/svg">
<path opacity="0.4" fill-rule="evenodd" clip-rule="evenodd" d="M5.61636 3.78887H11.4178V2.43811H5.61636V3.78887ZM4.29689 2.49345V2.50017C3.84402 2.54136 3.39602 2.6313 2.96016 2.76663V2.76158C2.9472 2.76703 2.935 2.77123 2.9233 2.77525C2.90792 2.78054 2.89341 2.78553 2.87915 2.79268C2.84431 2.80109 2.81029 2.8137 2.77788 2.82967C2.68228 2.86077 2.58669 2.89775 2.49676 2.93558C2.47286 2.94482 2.44896 2.95554 2.42506 2.96626L2.42506 2.96626C2.40116 2.97697 2.37726 2.98769 2.35337 2.99694C2.32056 3.01249 2.28633 3.0295 2.25211 3.04652L2.2521 3.04653L2.25209 3.04653C2.21787 3.06355 2.18364 3.08057 2.15083 3.09612L1.9888 3.18942C1.95884 3.2047 1.93111 3.22262 1.90282 3.24091C1.88597 3.25179 1.86892 3.26281 1.85108 3.27348C1.60723 3.43066 1.3812 3.61474 1.17704 3.82404L1.16489 3.83664C1.13808 3.8679 1.11138 3.89823 1.08504 3.92814L1.08504 3.92815C1.04055 3.97868 0.997093 4.02804 0.955876 4.07872L0.943723 4.09049C0.281029 5.00501 -0.0511281 6.13218 0.00639183 7.27448V7.63676H1.31477V7.27112C1.31477 5.67912 1.82191 4.68812 2.95044 4.18043C3.38143 3.99803 3.83673 3.8854 4.30013 3.84421H4.31228V2.49933L4.29689 2.49345ZM16.0537 4.07407L16.0593 4.08584C16.7212 5.0012 17.0517 6.12921 16.9934 7.27151V7.63715H15.6858V7.26227C15.7134 6.58815 15.5781 5.91739 15.2913 5.31136C15.0159 4.79274 14.5751 4.39012 14.0429 4.17157C13.6192 3.98918 13.1704 3.8757 12.7126 3.83536V2.4972C13.1655 2.53923 13.6135 2.62833 14.0502 2.76366V2.75693C14.0747 2.76807 14.0934 2.77469 14.1256 2.78604L14.1312 2.78803C14.1461 2.79331 14.16 2.79858 14.1738 2.80379C14.1929 2.81104 14.2117 2.81817 14.2325 2.82502C14.322 2.8544 14.4058 2.88904 14.492 2.92468L14.5071 2.93093C14.5469 2.9449 14.5843 2.96222 14.6181 2.97783C14.629 2.98289 14.6396 2.98776 14.6497 2.99229C14.721 3.02339 14.7939 3.06037 14.8522 3.09147C14.8911 3.11166 14.929 3.13326 14.9646 3.15352C14.9838 3.16448 15.0023 3.17504 15.0199 3.18477C15.0489 3.2008 15.0742 3.21795 15.0984 3.23444C15.1162 3.24649 15.1334 3.25818 15.1512 3.26883C15.3958 3.42685 15.6243 3.61177 15.8309 3.81939L15.8382 3.83199C15.9143 3.90848 15.9864 3.98918 16.0537 4.07407Z" fill="#5669FF"/>
<path d="M12.7501 1.55503V4.53147C12.7501 4.9065 12.4458 5.21025 12.0701 5.21025C11.6944 5.21025 11.3901 4.9065 11.3901 4.53147V1.56182C11.3867 1.18679 11.6893 0.880491 12.065 0.877946C12.4407 0.8754 12.7475 1.17661 12.7501 1.55163V1.55503Z" fill="#5669FF"/>
<path d="M5.61 1.56559V4.53468C5.61 4.91133 5.30533 5.21672 4.92957 5.21672C4.55382 5.21672 4.25 4.91133 4.25 4.53468V1.56559C4.25 1.18894 4.55382 0.884399 4.92957 0.884399C5.30533 0.884399 5.61 1.18894 5.61 1.56559Z" fill="#5669FF"/>
<path fill-rule="evenodd" clip-rule="evenodd" d="M0 14.96V7.6366H17V14.96C17 18.1536 15.2165 19.7671 11.6819 19.7671H5.30996C1.7835 19.7671 0 18.1536 0 14.96ZM3.83443 11.7088C3.83443 12.1518 4.18302 12.5113 4.61269 12.5113C5.05045 12.5113 5.39905 12.1435 5.39094 11.7004C5.39094 11.2573 5.04235 10.8978 4.62079 10.8978H4.61269C4.18302 10.8978 3.83443 11.2657 3.83443 11.7088ZM7.71774 11.709C7.71774 12.152 8.07444 12.5115 8.5041 12.5115C8.93377 12.5115 9.28236 12.152 9.28236 11.7006C9.28236 11.2659 8.93377 10.9064 8.5041 10.898H8.496C8.06634 10.9064 7.71774 11.2659 7.71774 11.709ZM12.3872 12.5115C11.9575 12.5115 11.6089 12.152 11.6089 11.7089C11.6089 11.2658 11.9494 10.9063 12.3872 10.9063C12.8168 10.9063 13.1654 11.2658 13.1654 11.7089C13.1654 12.152 12.8168 12.5115 12.3872 12.5115ZM12.387 15.9387C11.9573 15.9387 11.6087 15.5792 11.6006 15.1361C11.6006 14.693 11.9492 14.3336 12.3789 14.3336H12.387C12.8167 14.3336 13.1652 14.693 13.1652 15.1361C13.1652 15.5792 12.8167 15.9387 12.387 15.9387ZM8.5041 15.9388C8.07444 15.9388 7.71774 15.5793 7.71774 15.1362C7.71774 14.6931 8.06634 14.3336 8.496 14.3253H8.5041C8.93377 14.3336 9.27425 14.6931 9.28236 15.1278C9.28236 15.5793 8.93377 15.9388 8.5041 15.9388ZM4.61276 15.9388C4.1831 15.9388 3.8345 15.5793 3.8345 15.1362C3.8264 14.6931 4.17499 14.3253 4.61276 14.3253C5.04242 14.3253 5.39101 14.6847 5.39101 15.1278C5.39101 15.5709 5.04242 15.9388 4.61276 15.9388Z" fill="#5669FF"/>
</svg>
